<svg width="67" height="52" viewBox="0 0 67 52" version="1.1" xmlns="http://www.w3.org/2000/svg" xmlns:xlink="http://www.w3.org/1999/xlink">
<title>icon_mist_day</title>
<desc>Created using Figma</desc>
<g id="Canvas" transform="translate(-1139 -537)">
<g id="icon_mist_day">
<g id="Page 1">
<use xlink:href="#path0_stroke" transform="translate(1141.05 539)" fill="#FBFBFB"/>
</g>
<g id="Page 1" opacity="0.7">
<use xlink:href="#path0_stroke" transform="translate(1141.05 552.204)" fill="#FBFBFB"/>
</g>
<g id="Page 1" opacity="0.4">
<use xlink:href="#path0_stroke" transform="translate(1141.05 565.408)" fill="#FBFBFB"/>
</g>
<g id="Page 1" opacity="0.2">
<use xlink:href="#path0_stroke" transform="translate(1141.05 578.612)" fill="#FBFBFB"/>
</g>
</g>
</g>
<defs>
<path id="path0_stroke" d="M -0.846384 2.10548C -1.84717 2.57292 -2.27953 3.76316 -1.81208 4.76394C -1.34464 5.76473 -0.1544 6.19708 0.846384 5.72964L -0.846384 2.10548ZM 24.202 1.13497L 23.6322 3.05208C 23.638 3.0538 23.6438 3.05549 23.6495 3.05715L 24.202 1.13497ZM 37.9786 6.70015L 38.5484 4.78304C 38.5426 4.78132 38.5369 4.77963 38.5311 4.77797L 37.9786 6.70015ZM 63.027 5.72964C 64.0278 5.2622 64.4601 4.07196 63.9927 3.07118C 63.5253 2.07039 62.335 1.63804 61.3342 2.10548L 63.027 5.72964ZM 0.846384 5.72964C 8.02638 2.37602 16.0679 0.803723 23.6322 3.05208L 24.7719 -0.782132C 15.9533 -3.4033 6.86718 -1.49736 -0.846384 2.10548L 0.846384 5.72964ZM 23.6495 3.05715C 25.894 3.70229 27.988 4.67593 30.2439 5.72964C 32.456 6.76287 34.8302 7.87617 37.4261 8.62232L 38.5311 4.77797C 36.2866 4.13283 34.1926 3.15919 31.9367 2.10548C 29.7246 1.07225 27.3505 -0.0410467 24.7545 -0.787198L 23.6495 3.05715ZM 37.4088 8.61725C 46.2274 11.2384 55.3134 9.33248 63.027 5.72964L 61.3342 2.10548C 54.1542 5.4591 46.1127 7.0314 38.5484 4.78304L 37.4088 8.61725Z"/>
</defs>
</svg>
