<svg id="Calque_1" data-name="Calque 1" xmlns="http://www.w3.org/2000/svg" xmlns:xlink="http://www.w3.org/1999/xlink" viewBox="0 0 127.64 127.64"><defs><style>.cls-1{fill:url(#Dégradé_sans_nom_2);}.cls-2{fill:url(#Dégradé_sans_nom_2-2);}.cls-3{fill:url(#Dégradé_sans_nom_2-3);}.cls-4{fill:url(#Dégradé_sans_nom_2-4);}.cls-5{fill:url(#Dégradé_sans_nom_2-5);}.cls-6{fill:url(#Dégradé_sans_nom_2-6);}.cls-7{fill:url(#Dégradé_sans_nom_2-7);}.cls-8{fill:url(#Dégradé_sans_nom_2-8);}.cls-9{fill:url(#Dégradé_sans_nom_2-9);}</style><linearGradient id="Dégradé_sans_nom_2" x1="1.48" y1="842.94" x2="4.41" y2="842.94" gradientTransform="matrix(0, 29.61, 29.61, 0, -24895.74, -29.11)" gradientUnits="userSpaceOnUse"><stop offset="0" stop-color="#ffe7ad"/><stop offset="1" stop-color="#fcc030"/></linearGradient><linearGradient id="Dégradé_sans_nom_2-2" x1="64.24" y1="-2.36" x2="64.24" y2="16.99" gradientTransform="matrix(1, 0, 0, 1, 0, 0)" xlink:href="#Dégradé_sans_nom_2"/><linearGradient id="Dégradé_sans_nom_2-3" x1="325.21" y1="-80.62" x2="325.21" y2="-61.27" gradientTransform="translate(-300.21 94.16)" xlink:href="#Dégradé_sans_nom_2"/><linearGradient id="Dégradé_sans_nom_2-4" x1="565.07" y1="48.58" x2="565.07" y2="67.92" gradientTransform="translate(-556.58 3.96)" xlink:href="#Dégradé_sans_nom_2"/><linearGradient id="Dégradé_sans_nom_2-5" x1="643.33" y1="309.54" x2="643.33" y2="328.89" gradientTransform="translate(-618.93 -217.75)" xlink:href="#Dégradé_sans_nom_2"/><linearGradient id="Dégradé_sans_nom_2-6" x1="514.13" y1="549.4" x2="514.13" y2="568.75" gradientTransform="translate(-450.74 -441.11)" xlink:href="#Dégradé_sans_nom_2"/><linearGradient id="Dégradé_sans_nom_2-7" x1="253.17" y1="627.66" x2="253.17" y2="647.01" gradientTransform="translate(-150.53 -535.27)" xlink:href="#Dégradé_sans_nom_2"/><linearGradient id="Dégradé_sans_nom_2-8" x1="13.31" y1="498.47" x2="13.31" y2="517.81" gradientTransform="translate(105.84 -445.08)" xlink:href="#Dégradé_sans_nom_2"/><linearGradient id="Dégradé_sans_nom_2-9" x1="-64.95" y1="237.5" x2="-64.95" y2="256.85" gradientTransform="translate(168.19 -223.36)" xlink:href="#Dégradé_sans_nom_2"/></defs><title>icon_sun</title><g id="Canvas"><g id="icon_few_clouds_day" data-name="icon few clouds day"><g id="sun"><g id="Group"><g id="Oval"><path id="path0_fill" data-name="path0 fill" class="cls-1" d="M64.6,101.5a38,38,0,1,0-38-38A38,38,0,0,0,64.6,101.5Z"/></g></g></g></g></g><rect class="cls-2" x="62.59" width="3.31" height="16.99" rx="1.65" ry="1.65"/><rect class="cls-3" x="23.35" y="15.9" width="3.31" height="16.99" rx="1.65" ry="1.65" transform="translate(-9.93 24.82) rotate(-45)"/><rect class="cls-4" x="6.84" y="54.9" width="3.31" height="16.99" rx="1.65" ry="1.65" transform="translate(-54.9 71.89) rotate(-90)"/><rect class="cls-5" x="22.75" y="94.15" width="3.31" height="16.99" rx="1.65" ry="1.65" transform="translate(-30.93 192.47) rotate(-135)"/><rect class="cls-6" x="61.74" y="110.65" width="3.31" height="16.99" rx="1.65" ry="1.65" transform="translate(126.79 238.29) rotate(180)"/><rect class="cls-7" x="100.99" y="94.75" width="3.31" height="16.99" rx="1.65" ry="1.65" transform="translate(248.22 103.67) rotate(135)"/><rect class="cls-8" x="117.49" y="55.75" width="3.31" height="16.99" rx="1.65" ry="1.65" transform="translate(183.39 -54.9) rotate(90)"/><rect class="cls-9" x="101.59" y="16.5" width="3.31" height="16.99" rx="1.65" ry="1.65" transform="translate(47.91 -65.68) rotate(45)"/></svg>