<svg width="77" height="57" viewBox="0 0 77 57" version="1.1" xmlns="http://www.w3.org/2000/svg" xmlns:xlink="http://www.w3.org/1999/xlink">
<title>icon_few_clouds_night</title>
<desc>Created using Figma</desc>
<g id="Canvas" transform="translate(-958 -536)">
<g id="icon_few_clouds_night">
<g id="moon">
<use xlink:href="#path0_fill" transform="translate(997.751 536.357)" fill="#FFFFFF"/>
<use xlink:href="#path0_fill" transform="translate(997.751 536.357)" fill="url(#paint1_linear)" fill-opacity="0.3"/>
<use xlink:href="#path0_fill" transform="translate(997.751 536.357)" fill="#3F8AE9" fill-opacity="0.5" style="mix-blend-mode:color"/>
</g>
<g id="cloud" filter="url(#filter0_d)">
<use xlink:href="#path1_fill" transform="translate(966.839 548.829)" fill="#FFFFFF"/>
</g>
</g>
</g>
<defs>
<filter id="filter0_d" filterUnits="userSpaceOnUse" x="958" y="544" width="67" height="49" color-interpolation-filters="sRGB">
<feFlood flood-opacity="0" result="BackgroundImageFix"/>
<feColorMatrix in="SourceAlpha" type="matrix" values="0 0 0 0 0 0 0 0 0 0 0 0 0 0 0 0 0 0 255 0"/>
<feOffset dx="0" dy="4"/>
<feGaussianBlur stdDeviation="4"/>
<feColorMatrix type="matrix" values="0 0 0 0 0 0 0 0 0 0 0 0 0 0 0 0 0 0 0.2 0"/>
<feBlend mode="normal" in2="BackgroundImageFix" result="effect1_dropShadow"/>
<feBlend mode="normal" in="SourceGraphic" in2="effect1_dropShadow" result="shape"/>
</filter>
<linearGradient id="paint1_linear" x1="0" y1="0" x2="1" y2="0" gradientUnits="userSpaceOnUse" gradientTransform="matrix(0 51.6667 -36.8655 0 18.4327 0)">
<stop offset="0" stop-color="#FFFFFF" stop-opacity="0.5"/>
<stop offset="1" stop-color="#000000" stop-opacity="0.5"/>
</linearGradient>
<path id="path0_fill" fill-rule="evenodd" d="M 0 49.1807C 3.35199 50.7747 7.10175 51.6667 11.0596 51.6667C 25.3118 51.6667 36.8654 40.1007 36.8654 25.8333C 36.8654 11.566 25.3118 0 11.0596 0C 7.10175 0 3.35199 0.891968 0 2.48602C 8.71851 6.63214 14.7462 15.5281 14.7462 25.8333C 14.7462 36.1386 8.71851 45.0345 0 49.1807Z"/>
<path id="path1_fill" fill-rule="evenodd" d="M 11.7674 32.0687L 40.3146 32.0687C 45.5593 32.0687 49.8315 27.6715 49.8315 22.4457C 49.8315 18.0485 46.9385 14.3737 42.87 13.1761C 42.7622 9.25742 39.511 6.12926 35.5067 6.12926C 34.3429 6.12926 33.2463 6.41112 32.2674 6.88428C 30.5358 2.83657 26.4712 0 21.7325 0C 16.5654 0 12.2013 3.38178 10.7884 8.01901C 4.68086 8.74579 0 13.7958 0 20.0083C 0 26.5173 5.07274 32.0687 11.7674 32.0687Z"/>
</defs>
</svg>
